<svg id="Capa_1" data-name="Capa 1" xmlns="http://www.w3.org/2000/svg" viewBox="0 0 962.09 347.89"><path d="M557.28,400.32a489.43,489.43,0,0,1-40.19,225.33c-3.18,7.26,5.36,18.46,9.8,8.31a510.39,510.39,0,0,0,41.92-181,499,499,0,0,0-.42-52.89c-.19-3.25-1.69-8.35-5.76-8.33-3.92,0-5.53,5.54-5.35,8.6Z" transform="translate(-454.05 -318.57)"/><path d="M577.43,477.66a234,234,0,0,0,79.62-53.44c20.72-21.3,45.55-55.37,25.65-85.24S621,318.5,592.31,326.78c-31.57,9.12-61.75,24.5-86.11,46.76-26.05,23.79-44.75,55-51.95,89.64-.71,3.37.48,9,4.13,10.31,3.93,1.43,6.06-3.06,6.69-6.08,11.79-56.68,58.88-98,111.16-117.9a242.5,242.5,0,0,1,43.36-12.13c15-2.7,31.64-3.83,45.27,4.24,28.59,16.95,4.8,48.37-10.92,65.14a225.43,225.43,0,0,1-79.86,54.65c-6.58,2.67-4.24,19.33,3.35,16.25Z" transform="translate(-454.05 -318.57)"/><path d="M569.7,536.66a231.27,231.27,0,0,1-6.5,48.77l11,2a258.07,258.07,0,0,1,2.59-26.18q1-6.6,2.31-13.14c.37-1.87.77-3.73,1.18-5.59.28-1.24.56-2.48.86-3.71.52-1.28.39-1.34-.39-.17l-5.51-6.08q5.43,35.7,10.85,71.4c.49,3.22,3.34,7.14,7,5.74,3.83-1.47,4.12-7.22,3.62-10.5q-5.42-35.7-10.85-71.4c-.4-2.66-2.46-6.08-5.51-6.08-5,0-7.75,4.65-9.06,9a165.34,165.34,0,0,0-4.07,18.81,293.59,293.59,0,0,0-4.11,38.21c-.14,3.06,1.64,7.64,5,8.2,3.67.6,5.26-3.34,5.95-6.22a251.7,251.7,0,0,0,6.79-53.28c.07-3.24-1.88-8.34-5.77-8.32-4.1,0-5.27,5.54-5.34,8.6Z" transform="translate(-454.05 -318.57)"/><path d="M561.44,605.1a182.81,182.81,0,0,0,30-27.72,198.79,198.79,0,0,0,12.35-15.86c3.86-5.54,6.88-11.63,10.69-17.16l-2.4,2.24.84-.41-2.95.07.71.29-2.5-2.11-.8-2.12q.27,1.36.48,2.73c.19,1.16.35,2.31.48,3.47a76.05,76.05,0,0,1-1.88,26l10.72-.27c-2.2-8.52-4.66-17-6.57-25.61-.76-3.46-1.63-7,.54-10.08a15.43,15.43,0,0,1,8-5.35,25.33,25.33,0,0,1,12-.42,34.33,34.33,0,0,1,5,1.34,15.67,15.67,0,0,1,2.28,1q1.32-10.39-1.31-5.68c-5.56,5.54-10.64,11-17,15.77-4.23,3.16-3.44,15.95,3.19,15.7s15.23-1,20.21,4.1c1.91,2,1.8,2,0,4.29a31,31,0,0,1-7.1,6.07,130.14,130.14,0,0,1-43.06,18.31c-6.73,1.57-4.79,18.15,3.36,16.24a135.45,135.45,0,0,0,30.83-11.19c8.82-4.51,18.8-9.86,24.52-18.24s5.43-20.14-1.12-27.92c-7.07-8.41-17.82-9-28-8.59l3.19,15.7a104.07,104.07,0,0,0,13.84-12.27c4.23-4.51,8.52-9.32,8.47-15.89-.11-13.44-15.33-17.2-26.41-15.9A25.91,25.91,0,0,0,598.9,538c-.95,6.74.55,13.5,2.22,20q2.7,10.54,5.43,21.09c2,7.76,9,7.33,10.72-.27a100.47,100.47,0,0,0,1.32-37.58c-.61-4.07-2-11.75-7.58-11.61-5,.13-7.74,8.27-9.9,11.76a176.58,176.58,0,0,1-45.64,49.26c-5.57,4.12-1.46,20,6,14.48Z" transform="translate(-454.05 -318.57)"/><path d="M664,504.38q-2.88,22.54-5.32,45.14-1.27,11.79-2.42,23.6c-.59,6-1.2,12.13,1.28,17.83,2.12,4.87,6.55,8.55,12.06,6.51,5.21-1.93,10.17-7.65,13.76-11.72a82.75,82.75,0,0,0,17.78-32.48L690.83,547l-1.52,18.62c-.48,5.83-1.08,11.82,1.26,17.38,1.52,3.62,4.52,7.17,8.75,7.31,5.16.17,10.13-4.53,13.63-7.83a59.76,59.76,0,0,0,16.13-26.34c3.19-10.88,4.49-24.91-4.44-33.54-6.79-6.57-17.08-7.2-25.56-4-5.14,2-9.74,5.32-14,8.72-4.73,3.76-9,7.54-8.86,14.14.68,27.65,50.11,1.77,61.44-3.42,27.29-12.49,54.26-25.72,81.35-38.62,6.44-3.07,3.94-19.72-3.35-16.25q-33.48,15.94-66.95,31.88c-10.42,4.95-20.87,9.85-31.54,14.23-5.16,2.12-10.37,4.26-15.72,5.86a40.37,40.37,0,0,1-9.36,1.75,24.71,24.71,0,0,1-3.65,0c-3.52-.33-2-1.47-1.36,2.05l-.4,6.53c.36-1.27,3.92-3.32,5-4.2A48,48,0,0,1,698,537c4.11-2.3,8.56-3.87,13.32-3.35,3.1.34,7.37,1.69,8.74,4.82,1.52,3.48-.49,8.89-1.69,12.26a43.93,43.93,0,0,1-16.05,21.19,13.28,13.28,0,0,1-2.62,1.41c-.64.26.36,1,.26.62-.36-1.47.18-3.62.29-5l1.44-17.68c.28-3.41-.11-8-3.46-9.91-2.94-1.66-6,.59-6.85,3.63a65.33,65.33,0,0,1-21.8,34c-1.15,1-3.49,1.74-2.83,2.77-.42-.65.2-2.49.28-3.34q3.38-34.92,7.83-69.72c.44-3.45-.3-8.92-4.14-10.31s-6.29,3-6.68,6.07Z" transform="translate(-454.05 -318.57)"/><path d="M861.09,350.61a1116.83,1116.83,0,0,1-44.8,226.95c-1.11,3.63-1,9,2.28,11.53,3.06,2.41,6.51.09,7.53-3.22a1138.14,1138.14,0,0,0,45.82-231c.32-3.49-.23-8.89-4.14-10.32-3.67-1.34-6.4,3-6.69,6.08Z" transform="translate(-454.05 -318.57)"/><path d="M907.08,331.84a1262.32,1262.32,0,0,1-43.69,235.59c-1,3.66-1,8.92,2.28,11.53,3,2.38,6.57.13,7.53-3.22a1284.23,1284.23,0,0,0,44.7-239.67c.31-3.48-.22-8.88-4.14-10.31-3.66-1.34-6.41,2.95-6.68,6.08Z" transform="translate(-454.05 -318.57)"/><path d="M847,521.46l30-5.27c7.52-1.33,6.72-18.18-.41-16.93l-29.95,5.28c-7.52,1.32-6.72,18.18.41,16.92Z" transform="translate(-454.05 -318.57)"/><path d="M916.68,475.7a513.32,513.32,0,0,1-25.52,85L901,569l10.2-34.51,5-16.79c.9-3.06,1.58-10.15,4.65-12l-7.23-8Q917,534,917.22,570.38c0,3.25,1.81,8.35,5.77,8.33s5.36-5.54,5.34-8.6q-.24-36.39-3.66-72.64c-.25-2.68-2.58-10.78-7.23-8s-7.11,7.07-8.8,12.17c-2.06,6.25-3.75,12.65-5.62,19l-11.86,40.1c-1.08,3.64-1,8.94,2.28,11.53s6.27-.06,7.53-3.22a537,537,0,0,0,26.53-89.08c.7-3.38-.47-9-4.13-10.32-3.92-1.43-6.07,3.06-6.69,6.08Z" transform="translate(-454.05 -318.57)"/><path d="M899.47,571.27a79.58,79.58,0,0,0,21.42-8c3.56-2,4.4-6.79,3.62-10.5-.56-2.71-3.38-7.74-7-5.74a70.26,70.26,0,0,1-18.48,7.28c-3.92.9-5.44,4.82-5.34,8.6.06,2.5,1.87,9.21,5.76,8.33Z" transform="translate(-454.05 -318.57)"/><path d="M940,506.86c-2.71,17.22-4.39,35.09-.75,52.32,1.41,6.63,4.49,15.25,12.69,15.17,7.73-.08,12.13-7.18,15.2-13.3a201.48,201.48,0,0,0,21.13-97.19c-.11-3.25-1.74-8.35-5.76-8.32s-5.46,5.53-5.35,8.59A179.57,179.57,0,0,1,964,538.06c-2.21,5.41-4.45,11.36-7.77,16.21-1,1.4-3.72,4.47-5.79,2.91-1-.74-1.09-5.2-1.28-6.39-2.11-13.16-.42-26.65,1.64-39.7.54-3.42-.38-8.94-4.14-10.31s-6.21,3-6.69,6.08Z" transform="translate(-454.05 -318.57)"/><path d="M1007.63,465.39a477.87,477.87,0,0,1-11.57,87.68c-.76,3.36.52,9,4.14,10.31,4,1.45,6-3.07,6.69-6.07a502.21,502.21,0,0,0,11.85-92.19c.12-3.25-1.9-8.35-5.76-8.33-4.14,0-5.24,5.54-5.35,8.6Z" transform="translate(-454.05 -318.57)"/><path d="M963.27,449a452.64,452.64,0,0,0,94.92-4.18c7.54-1.13,6.81-18-.41-16.92a454.09,454.09,0,0,1-94.93,4.18c-7.34-.45-7.2,16.46.42,16.92Z" transform="translate(-454.05 -318.57)"/><path d="M1044,485.65a451.19,451.19,0,0,1-13.61,65.07c-1.05,3.65-1,8.92,2.28,11.53s6.34,0,7.53-3.23a56.23,56.23,0,0,0,3.3-17.66c.12-3.24-1.9-8.34-5.76-8.32-4.14,0-5.24,5.54-5.35,8.6a28.94,28.94,0,0,1-2,9.08l9.81,8.3a479.51,479.51,0,0,0,14.62-69.13c.46-3.45-.32-8.92-4.14-10.32s-6.27,3-6.68,6.08Z" transform="translate(-454.05 -318.57)"/><path d="M1045.9,504c-1-3.84-1.94-7.68-2.9-11.53-.57-2.26-1.61-4.17-.68-5.47,1.18-1.63,4.8-2.39,6.64-2.9,3.52-1,7.14-1.65,10.71-2.45l43.69-9.78c3.93-.88,5.44-4.82,5.35-8.6-.06-2.51-1.88-9.19-5.77-8.32-18.64,4.17-37.47,7.86-56,12.55-7.37,1.87-13.33,5.64-15.51,13.33-2.57,9.05,1.66,19.2,3.86,27.93.79,3.13,3.14,7.22,7,5.75,3.61-1.39,4.43-7.33,3.62-10.51Z" transform="translate(-454.05 -318.57)"/><path d="M1052,531.14a63,63,0,0,0,22.8-2.5c6.72-1.94,4.65-18.55-3.35-16.24a55.46,55.46,0,0,1-19.86,1.82c-7.3-.58-7.2,16.32.41,16.92Z" transform="translate(-454.05 -318.57)"/><path d="M1029.45,564.15a195,195,0,0,0,62.79-9.32c6.7-2.14,4.56-18.77-3.35-16.25a185.15,185.15,0,0,1-59.86,8.64c-7.44-.13-7.17,16.79.42,16.93Z" transform="translate(-454.05 -318.57)"/><path d="M1104.85,472.89a471.94,471.94,0,0,1-2.45,48c-.78,7.65-1.68,15.41-1.08,23.1.4,5.27.84,16.19,8,16.92,5.46.56,11-5.78,14-9.64,4-5.16,6.78-11.22,9.11-17.31,5.47-14.31,10.16-29,15.2-43.43,1.24-3.56.92-9-2.28-11.53s-6.4,0-7.53,3.22q-6.58,18.93-13.18,37.85a86.85,86.85,0,0,1-5.47,13.37c-1.66,3-6.05,10.72-10.22,10.55l2.83,1.09q1.77,4.51,1.13,1.77-.15-.78-.27-1.56a40.89,40.89,0,0,1-.32-4.27,77.66,77.66,0,0,1,.24-8.63c.52-6.58,1.33-13.12,1.85-19.7q1.58-20,1.6-40.07c0-3.25-1.83-8.34-5.77-8.32s-5.35,5.53-5.35,8.6Z" transform="translate(-454.05 -318.57)"/><path d="M1148.84,496.64a152.31,152.31,0,0,1-7.11,39.42c-1.14,3.61-1,9,2.28,11.53,3.08,2.42,6.48.07,7.53-3.22a184.72,184.72,0,0,0,8.41-48c.15-3.25-1.92-8.35-5.76-8.33-4.16,0-5.21,5.54-5.35,8.6Z" transform="translate(-454.05 -318.57)"/><path d="M1176.06,460.11v-5a11,11,0,0,0-1.78-5.94c-.83-1.17-2.4-2.53-4-2.38-4,.37-5.35,5.24-5.35,8.6v5a11,11,0,0,0,1.78,5.94c.83,1.17,2.4,2.53,4,2.38,4-.37,5.35-5.24,5.35-8.6Z" transform="translate(-454.05 -318.57)"/><path d="M1197.54,433.12q-9.66,57.67-21.06,115c-.68,3.39.46,9,4.13,10.31,3.91,1.43,6.09-3.05,6.69-6.07q11.42-57.36,21.06-115c.58-3.42-.39-8.95-4.13-10.31s-6.18,3-6.69,6.07Z" transform="translate(-454.05 -318.57)"/><path d="M1218.59,415.6q-8.1,64.75-21.85,128.6c-.72,3.37.5,9,4.14,10.31,3.94,1.44,6-3.06,6.69-6.07q13.73-63.8,21.85-128.6c.43-3.46-.3-8.92-4.14-10.32s-6.3,3-6.69,6.08Z" transform="translate(-454.05 -318.57)"/><path d="M1237,456.82a313.88,313.88,0,0,1-18.11,76c-2.74,7.28,5,18.43,9.8,8.3,8.88-18.77,10.17-39.86,9.89-60.32-.06-4.15-.53-6.43,4-7.85,4.79-1.5,10.09-2,15-2.91q16.61-3,33.25-5.82c7.52-1.26,6.74-18.13-.42-16.93q-18.06,3-36.09,6.35c-10.36,1.9-21.81,2.43-25.53,14.11-3.2,10.05-.88,21.91-1.72,32.34-.91,11.4-3.27,22.36-8.17,32.73l9.8,8.3a331.13,331.13,0,0,0,19.13-80.06c.38-3.47-.26-8.9-4.13-10.32s-6.35,3-6.69,6.08Z" transform="translate(-454.05 -318.57)"/><path d="M1242.19,513.44q19.68-4.59,38.84-11c6.68-2.24,4.5-18.88-3.35-16.25q-19.17,6.42-38.84,11c-6.73,1.57-4.79,18.15,3.35,16.24Z" transform="translate(-454.05 -318.57)"/><path d="M1221,551.19a728.67,728.67,0,0,1,93.41-15.45c7.55-.75,7-17.66-.41-16.92a751.07,751.07,0,0,0-96.35,16.12c-6.74,1.58-4.79,18.16,3.35,16.25Z" transform="translate(-454.05 -318.57)"/><path d="M525,666.38q170.55-32.86,343.26-52.71,172.55-19.8,346.27-26.41,98.05-3.72,196.21-3.22c7.46,0,7.16-16.89-.41-16.92q-173.68-.87-347.09,11.46Q890,590.94,718,616.46q-97.07,14.4-193.44,33c-7.5,1.44-6.66,18.29.41,16.92Z" transform="translate(-454.05 -318.57)"/></svg>